<svg width="48" height="48" viewBox="0 0 48 48" fill="none" xmlns="http://www.w3.org/2000/svg">
<circle cx="24" cy="24" r="20" fill="#326CE5"/>
<path d="M24 8C32.8366 8 40 15.1634 40 24C40 32.8366 32.8366 40 24 40C15.1634 40 8 32.8366 8 24C8 15.1634 15.1634 8 24 8ZM24 10C16.268 10 10 16.268 10 24C10 31.732 16.268 38 24 38C31.732 38 38 31.732 38 24C38 16.268 31.732 10 24 10Z" fill="white"/>
<path d="M24 12L28 20L36 18L32 26L38 30L30 32L26 40L24 32L22 40L18 32L10 30L16 26L12 18L20 20L24 12Z" fill="white"/>
</svg> 