<svg width="48" height="48" viewBox="0 0 48 48" fill="none" xmlns="http://www.w3.org/2000/svg">
<path fill-rule="evenodd" clip-rule="evenodd" d="M24 9.6C17.6 9.6 13.6 12.8 12 19.2C14.4 16 17.2 14.8 20.4 15.6C22.2772 16.0579 23.5922 17.3924 25.0451 18.8678C27.4901 21.3578 30.3951 24.3051 36 24.3051C42.4 24.3051 46.4 21.1051 48 14.7051C45.6 18.0051 42.8 19.2051 39.6 18.4051C37.7228 17.9472 36.4078 16.6127 34.9549 15.1373C32.5099 12.6473 29.6049 9.6 24 9.6ZM12 24.3051C5.6 24.3051 1.6 27.5051 0 33.9051C2.4 30.6051 5.2 29.4051 8.4 30.2051C10.2772 30.663 11.5922 31.9975 13.0451 33.4729C15.4901 35.9629 18.3951 38.9102 24 38.9102C30.4 38.9102 34.4 35.7102 36 29.3102C33.6 32.6102 30.8 33.8102 27.6 33.0102C25.7228 32.5523 24.4078 31.2178 22.9549 29.7424C20.5099 27.2524 17.6049 24.3051 12 24.3051Z" fill="#06B6D4"/>
</svg> 