<svg xmlns="http://www.w3.org/2000/svg" viewBox="0 0 24 24" width="35" height="35">
  <rect width="24" height="24" rx="2" fill="#f05032"/>
  <path fill="white" d="M21.2 10.2L13.8 2.8c-.8-.8-2-.8-2.8 0L9.2 4.6l1.6 1.6c.4-.2.9-.1 1.2.2s.4.8.2 1.2l1.6 1.6c.4-.2.9-.1 1.2.2.5.5.5 1.2 0 1.7s-1.2.5-1.7 0c-.3-.3-.4-.8-.2-1.2L11.5 9v4.5c.1.1.2.1.3.2.5.5.5 1.2 0 1.7s-1.2.5-1.7 0-.5-1.2 0-1.7c.1-.1.2-.1.3-.2V8.8c-.1-.1-.2-.1-.3-.2-.3-.3-.4-.8-.2-1.2L8.2 5.7 2.8 11.2c-.8.8-.8 2 0 2.8l6.4 6.4c.8.8 2 .8 2.8 0l6.2-6.2c.8-.8.8-2 0-2.8z"/>
</svg> 