<svg xmlns="http://www.w3.org/2000/svg" viewBox="0 0 24 24" width="35" height="35">
  <rect width="24" height="24" fill="#f7df1e"/>
  <path fill="#000" d="M18.5 14.5c0 2.5-1.5 4-4 4-1.5 0-2.8-.8-3.5-2l1.5-1c.4.8 1 1.3 2 1.3 1 0 1.5-.5 1.5-1.3 0-.9-.6-1.2-1.6-1.7l-.6-.3c-1.6-.7-2.7-1.5-2.7-3.3 0-1.6 1.2-2.9 3.1-2.9 1.3 0 2.3.5 3 1.8l-1.5 1c-.3-.6-.7-1-.8-1-1.3 0-1.3.8-1.3 1 0 .7.5 1 1.6 1.4l.6.3c1.9.8 3 1.6 3 3.4z"/>
  <path fill="#000" d="M9 14.5v-6h2v6c0 1.2-.8 2-2.5 2s-2.5-.8-2.5-2v-.5h1.8v.5c0 .4.2.7.7.7s.5-.3.5-.7z"/>
</svg> 